<?xml version="1.0" encoding="utf-8"?>
<!-- Generator: Adobe Illustrator 16.0.4, SVG Export Plug-In . SVG Version: 6.00 Build 0)  -->
<!DOCTYPE svg PUBLIC "-//W3C//DTD SVG 1.0//EN" "http://www.w3.org/TR/2001/REC-SVG-20010904/DTD/svg10.dtd">
<svg version="1.0" id="Layer_1" xmlns="http://www.w3.org/2000/svg" xmlns:xlink="http://www.w3.org/1999/xlink" x="0px" y="0px"
	 width="484.865px" height="101.847px" viewBox="0 0 484.865 101.847" enable-background="new 0 0 484.865 101.847"
	 xml:space="preserve">
<g>
	<path fill="#188035" d="M10,65.581h6.764V15.979H10v-5.636h20.292v5.636h-6.763v21.419h30.437V15.979h-6.764v-5.636h20.292v5.636
		h-6.764v49.602h6.764v5.637H47.202v-5.637h6.764V43.035H23.528v22.546h6.763v5.637H10V65.581z"/>
	<path fill="#188035" d="M74.638,30.521c5.186-2.931,10.484-4.396,15.895-4.396c4.659,0,8.247,1.071,10.766,3.213
		c2.517,2.142,3.777,5.543,3.777,10.203v26.041h5.636v5.637H98.987l-0.338-5.073l-0.225-0.112
		c-3.607,4.209-8.043,6.312-13.302,6.312c-3.909,0-7.009-1.145-9.301-3.438c-2.293-2.292-3.438-5.203-3.438-8.737
		c0-4.734,2.047-8.266,6.144-10.597c4.096-2.328,10.051-3.494,17.868-3.494h1.917v-6.651c0-2.779-0.659-4.752-1.973-5.918
		c-1.316-1.164-3.514-1.748-6.594-1.748c-3.683,0-6.764,0.603-9.244,1.804v6.088h-5.862V30.521z M95.605,50.926
		c-5.186,0-9.17,0.659-11.95,1.973c-2.781,1.316-4.17,3.626-4.17,6.933c0,2.406,0.676,4.153,2.028,5.242
		c1.353,1.09,3.081,1.634,5.186,1.634c4.51,0,8.379-1.84,11.612-5.523V50.926H95.605z"/>
	<path fill="#188035" d="M121.718,27.252l0.338,3.607h0.225c3.382-3.156,7.176-4.735,11.386-4.735c4.809,0,8.68,1.973,11.611,5.919
		c2.931,3.945,4.396,9.15,4.396,15.613c0,7.366-1.786,13.322-5.354,17.868c-3.571,4.548-8.099,6.82-13.584,6.82
		c-2.857,0-5.675-0.676-8.455-2.029l-0.225,0.113v15.444h6.764v5.637h-19.165v-5.637h5.636V32.889h-5.636v-5.637H121.718z
		 M122.057,65.018c2.254,1.127,4.885,1.69,7.891,1.69c3.982,0,7.083-1.465,9.3-4.396c2.216-2.931,3.326-7.439,3.326-13.527
		c0-5.862-0.978-10.163-2.931-12.908c-1.955-2.743-4.585-4.115-7.891-4.115c-3.607,0-6.839,1.618-9.695,4.848V65.018z"/>
	<path fill="#188035" d="M162.064,27.252l0.338,3.607h0.225c3.382-3.156,7.176-4.735,11.386-4.735c4.809,0,8.68,1.973,11.611,5.919
		c2.931,3.945,4.397,9.15,4.397,15.613c0,7.366-1.786,13.322-5.355,17.868c-3.57,4.548-8.099,6.82-13.584,6.82
		c-2.856,0-5.675-0.676-8.455-2.029l-0.225,0.113v15.444h6.764v5.637h-19.165v-5.637h5.637V32.889h-5.637v-5.637H162.064z
		 M162.403,65.018c2.254,1.127,4.884,1.69,7.891,1.69c3.982,0,7.083-1.465,9.3-4.396c2.216-2.931,3.325-7.439,3.325-13.527
		c0-5.862-0.978-10.163-2.931-12.908c-1.955-2.743-4.585-4.115-7.891-4.115c-3.608,0-6.84,1.618-9.695,4.848V65.018z"/>
	<path fill="#188035" d="M227.859,32.889l-14.542,41.147c-0.901,2.629-1.86,5.033-2.875,7.214c-1.016,2.179-2.181,4.076-3.495,5.693
		c-1.315,1.615-2.875,2.835-4.678,3.664c-1.804,0.826-3.946,1.24-6.426,1.24c-1.353,0-2.706-0.113-4.058-0.338v-6.2
		c1.427,0.226,2.818,0.338,4.171,0.338c1.201,0,2.31-0.133,3.325-0.395c1.014-0.264,1.972-0.789,2.874-1.578
		c0.903-0.789,1.842-2.105,2.819-3.946c0.976-1.842,2.066-4.491,3.27-7.947h-0.563l-13.077-38.892h-5.073v-5.637h16.91v5.637h-4.96
		l9.808,30.212h0.226l10.258-30.212h-5.186v-5.637h16.911v5.637H227.859z"/>
	<path fill="#777777" d="M303.732,62.199l13.643-46.22h-5.752v-5.636h18.037v5.636h-5.861l-17.361,55.802H299.9l-10.822-33.03
		h-0.227l-10.596,33.03h-6.539l-17.699-55.802h-5.523v-5.636h18.037v5.636h-5.412l14.205,46.22h0.225l10.484-32.579l-4.508-13.641
		h-5.977v-5.636h19.166v5.636h-6.426l15.219,46.22H303.732z"/>
	<path fill="#777777" d="M329.043,30.521c5.186-2.931,10.482-4.396,15.896-4.396c4.658,0,8.244,1.071,10.764,3.213
		c2.518,2.142,3.777,5.543,3.777,10.203v26.041h5.637v5.637h-11.725l-0.336-5.073l-0.227-0.112
		c-3.609,4.209-8.043,6.312-13.305,6.312c-3.908,0-7.006-1.145-9.297-3.438c-2.295-2.292-3.439-5.203-3.439-8.737
		c0-4.734,2.047-8.266,6.143-10.597c4.096-2.328,10.053-3.494,17.869-3.494h1.916v-6.651c0-2.779-0.66-4.752-1.973-5.918
		c-1.314-1.164-3.514-1.748-6.596-1.748c-3.684,0-6.762,0.603-9.244,1.804v6.088h-5.861V30.521z M350.012,50.926
		c-5.188,0-9.17,0.659-11.949,1.973c-2.781,1.316-4.172,3.626-4.172,6.933c0,2.406,0.678,4.153,2.029,5.242
		c1.352,1.09,3.082,1.634,5.188,1.634c4.508,0,8.377-1.84,11.609-5.523V50.926H350.012z"/>
	<path fill="#777777" d="M369.627,65.581h5.635V32.889h-5.635v-5.637h12.4v38.329h5.635v5.637h-18.035V65.581z M373.346,15.303
		c0-1.578,0.434-2.799,1.297-3.663c0.861-0.863,2.047-1.297,3.549-1.297c1.428,0,2.594,0.434,3.496,1.297
		c0.902,0.864,1.352,2.011,1.352,3.438c0,1.504-0.449,2.688-1.352,3.551c-0.902,0.865-2.105,1.297-3.607,1.297
		c-1.428,0-2.576-0.432-3.438-1.297C373.779,17.765,373.346,16.655,373.346,15.303z"/>
	<path fill="#777777" d="M404.293,72.345c-3.232,0-5.789-0.845-7.666-2.537c-1.881-1.69-2.818-4.188-2.818-7.497V32.889h-5.639
		v-5.637h5.639V17.107l6.764-1.24v11.386h10.146v5.637h-10.146v28.295c0,2.18,0.432,3.646,1.295,4.396
		c0.865,0.752,2.01,1.127,3.439,1.127c1.803,0,3.607-0.451,5.412-1.352v5.523C408.688,71.855,406.547,72.345,404.293,72.345z"/>
	<path fill="#777777" d="M444.045,62.763v6.087c-3.758,2.33-8.154,3.494-13.188,3.494c-5.939,0-10.58-1.99-13.924-5.975
		c-3.346-3.982-5.016-9.543-5.016-16.684c0-7.365,1.764-13.133,5.299-17.304c3.529-4.171,7.963-6.257,13.301-6.257
		c4.357,0,7.893,1.729,10.598,5.186c2.705,3.458,4.057,8.381,4.057,14.768v3.494h-26.266c0.15,5.262,1.184,9.357,3.102,12.288
		c1.916,2.931,4.975,4.472,9.186,4.622C435.854,66.483,440.137,65.243,444.045,62.763z M438.41,44.162
		c0-4.284-0.791-7.421-2.369-9.413c-1.578-1.991-3.795-2.988-6.65-2.988c-2.781,0-5.111,1.034-6.99,3.101
		c-1.879,2.068-3.006,5.168-3.381,9.3H438.41z"/>
	<path fill="#777777" d="M448.938,65.581h5.637V32.889h-5.637v-5.637H461l0.336,6.313h0.227c1.426-2.405,3.004-4.171,4.736-5.298
		c1.725-1.127,3.793-1.691,6.199-1.691c0.902,0,1.691,0.076,2.367,0.226v7.102c-1.127-0.225-2.293-0.338-3.494-0.338
		c-2.182,0-4.078,0.507-5.695,1.522c-1.615,1.014-3.061,2.649-4.34,4.904v25.59h6.766v5.637h-19.164V65.581z"/>
</g>
</svg>
